<!-- From https://kotlinconf.com/ -->
<svg width="16" height="16" viewBox="0 0 16 16" fill="none" xmlns="http://www.w3.org/2000/svg">
    <rect width="16" height="16" fill=""/>
    <path d="M1.94109 13.0963C3.184 14.3152 4.86966 15 6.62729 15C8.38493 15 10.0706 14.3152 11.3135 13.0963L16 8.49978L11.3135 3.90383C10.0706 2.68483 8.38496 2 6.62729 2C4.86962 2 3.18395 2.68483 1.94109 3.90383C0.698229 5.12283 5.28551e-07 6.77615 5.28551e-07 8.50008C5.28551e-07 10.224 0.698229 11.8773 1.94109 13.0963Z" fill="url(#paint0_linear_2270_252)"/>
    <path d="M9.47522 10.0247C8.41522 10.0247 7.55592 9.18188 7.55592 8.14223C7.55592 7.10257 8.41522 6.25977 9.47522 6.25977C10.5352 6.25977 11.3945 7.10257 11.3945 8.14223C11.3945 9.18188 10.5352 10.0247 9.47522 10.0247Z" fill="white"/>
    <path d="M10.198 9.31587C9.53718 9.31587 9.00147 8.79045 9.00147 8.14231C9.00147 7.49417 9.53718 6.96875 10.198 6.96875C10.8588 6.96875 11.3945 7.49417 11.3945 8.14231C11.3945 8.79045 10.8588 9.31587 10.198 9.31587Z" fill="black"/>
    <defs>
        <linearGradient id="paint0_linear_2270_252" x1="16.024" y1="8.59702" x2="1.53494" y2="13.3129" gradientUnits="userSpaceOnUse">
            <stop stop-color="#FF021D"/>
            <stop offset="0.99" stop-color="#E600FF"/>
        </linearGradient>
    </defs>
</svg>
